<?xml version="1.0" encoding="utf-8"?>
<svg version="1.1" xmlns:xlink="http://www.w3.org/1999/xlink" width="41px" height="50px" xmlns="http://www.w3.org/2000/svg">
  <defs>
    <filter x="805px" y="616px" width="41px" height="50px" filterUnits="userSpaceOnUse" id="filter19">
      <feOffset dx="1" dy="1" in="SourceAlpha" result="shadowOffsetInner" />
      <feGaussianBlur stdDeviation="2.5" in="shadowOffsetInner" result="shadowGaussian" />
      <feComposite in2="shadowGaussian" operator="atop" in="SourceAlpha" result="shadowComposite" />
      <feColorMatrix type="matrix" values="0 0 0 0 0  0 0 0 0 0  0 0 0 0 0  0 0 0 0.698039215686274 0  " in="shadowComposite" />
    </filter>
    <g id="widget20">
      <path d="M 824.5 659.057919565382  C 818.5 649.420258194081  809.5 643.637661371301  809.5 634  C 809.5 628.985714285714  812.5 620.5  824.5 620.5  C 836.5 620.5  839.5 628.985714285714  839.5 634  C 839.5 643.637661371301  830.5 649.420258194081  824.5 659.057919565382  Z " fill-rule="nonzero" fill="#009dd9" stroke="none" />
      <path d="M 824.5 660  C 818.3 650  809 644  809 634  C 809 628.8  812.1 620  824.5 620  C 836.9 620  840 628.8  840 634  C 840 644  830.7 650  824.5 660  Z M 824.5 658.115839130763  C 830.3 648.840516388162  839 643.275322742601  839 634  C 839 629.171428571429  836.1 621  824.5 621  C 812.9 621  810 629.171428571429  810 634  C 810 643.275322742601  818.7 648.840516388162  824.5 658.115839130763  Z " fill-rule="nonzero" fill="#ffffff" stroke="none" />
    </g>
  </defs>
  <g transform="matrix(1 0 0 1 -805 -616 )">
    <use xlink:href="#widget20" filter="url(#filter19)" />
    <use xlink:href="#widget20" />
  </g>
</svg>