<?xml version="1.0" encoding="utf-8"?>
<svg version="1.1" xmlns:xlink="http://www.w3.org/1999/xlink" width="41px" height="50px" xmlns="http://www.w3.org/2000/svg">
  <defs>
    <pattern id="BGPattern" patternUnits="userSpaceOnUse" alignment="0 0" imageRepeat="None" />
    <mask fill="white" id="Clip15">
      <path d="M 31 14  C 31 24  21.7 30  15.5 40  C 9.299999999999999 30  0 24  0 14  C 0 8.799999999999999  3.1 0  15.5 0  C 27.900000000000002 0  31 8.799999999999999  31 14  Z " fill-rule="evenodd" />
    </mask>
  </defs>
  <g transform="matrix(1 0 0 1 -805 -616 )">
    <path d="M 31 14  C 31 24  21.7 30  15.5 40  C 9.299999999999999 30  0 24  0 14  C 0 8.799999999999999  3.1 0  15.5 0  C 27.900000000000002 0  31 8.799999999999999  31 14  Z " fill-rule="nonzero" fill="rgba(0, 157, 217, 1)" stroke="none" transform="matrix(1 0 0 1 809 620 )" class="fill" />
    <path d="M 31 14  C 31 24  21.7 30  15.5 40  C 9.299999999999999 30  0 24  0 14  C 0 8.799999999999999  3.1 0  15.5 0  C 27.900000000000002 0  31 8.799999999999999  31 14  Z " stroke-width="2" stroke-dasharray="0" stroke="rgba(255, 255, 255, 1)" fill="none" transform="matrix(1 0 0 1 809 620 )" class="stroke" mask="url(#Clip15)" />
  </g>
  <style>svg { filter: drop-shadow(1px 1px 2.5px rgba(0, 0, 0, 0.6980392156862745)); }</style>
</svg>