<?xml version="1.0" encoding="utf-8"?>
<svg version="1.1" xmlns:xlink="http://www.w3.org/1999/xlink" width="12px" height="12px" viewBox="1205 763  12 12" xmlns="http://www.w3.org/2000/svg">
  <path d="M 1211 763  C 1214.36 763  1217 765.64  1217 769  C 1217 772.36  1214.36 775  1211 775  C 1207.64 775  1205 772.36  1205 769  C 1205 765.64  1207.64 763  1211 763  Z " fill-rule="nonzero" fill="#f0f0f0" stroke="none" />
  <path d="M 1211 763.5  C 1214.08 763.5  1216.5 765.92  1216.5 769  C 1216.5 772.08  1214.08 774.5  1211 774.5  C 1207.92 774.5  1205.5 772.08  1205.5 769  C 1205.5 765.92  1207.92 763.5  1211 763.5  Z " stroke-width="1" stroke="#797979" fill="none" />
  <path d="M 1211 772  C 1209.32 772  1208 770.68  1208 769  C 1208 767.32  1209.32 766  1211 766  C 1212.68 766  1214 767.32  1214 769  C 1214 770.68  1212.68 772  1211 772  " fill-rule="nonzero" fill="#797979" stroke="none" />
</svg>