<?xml version="1.0" encoding="utf-8"?>
<svg version="1.1" xmlns:xlink="http://www.w3.org/1999/xlink" width="12px" height="12px" viewBox="1350 763  12 12" xmlns="http://www.w3.org/2000/svg">
  <path d="M 1356 763  C 1359.36 763  1362 765.64  1362 769  C 1362 772.36  1359.36 775  1356 775  C 1352.64 775  1350 772.36  1350 769  C 1350 765.64  1352.64 763  1356 763  Z " fill-rule="nonzero" fill="#ffffff" stroke="none" />
  <path d="M 1356 763.5  C 1359.08 763.5  1361.5 765.92  1361.5 769  C 1361.5 772.08  1359.08 774.5  1356 774.5  C 1352.92 774.5  1350.5 772.08  1350.5 769  C 1350.5 765.92  1352.92 763.5  1356 763.5  Z " stroke-width="1" stroke="#797979" fill="none" />
  <path d="M 1356 772  C 1354.32 772  1353 770.68  1353 769  C 1353 767.32  1354.32 766  1356 766  C 1357.68 766  1359 767.32  1359 769  C 1359 770.68  1357.68 772  1356 772  " fill-rule="nonzero" fill="#797979" stroke="none" />
</svg>